<svg id="Layer_1" data-name="Layer 1" xmlns="http://www.w3.org/2000/svg" viewBox="0 0 927.2 230.29"><defs><style>.cls-1{fill:#fff;}</style></defs><path class="cls-1" d="M154.33,516.85q47.07,0,94.14,0a132.78,132.78,0,0,1,42.73,6.66C317,532.2,337.35,548,351.85,571.05a104.54,104.54,0,0,1,13.49,34.34,121,121,0,0,1,2.54,28.15c-.51,19.66-5.13,38.22-15.13,55.27a106.81,106.81,0,0,1-33.11,34.86,118.17,118.17,0,0,1-45.14,18.21,135,135,0,0,1-24.32,2.32q-47.2.06-94.42.06c-.48,0-.95-.07-1.43-.11V615.25c.57,0,1.14-.13,1.71-.13h42c.52,0,1,0,1.72.08v85.32h2c14.83,0,29.65,0,44.47,0,3.17,0,6.33-.12,9.49-.32a80.71,80.71,0,0,0,22.08-4.36c21.52-7.69,36-22.21,42.19-44.38a78.48,78.48,0,0,0,.84-38.28,62.17,62.17,0,0,0-12.34-26.46c-8.18-10.07-18.58-16.92-30.72-21.23a89.83,89.83,0,0,0-30.23-4.92H156.48c-.71,0-1.43,0-2.15,0Z" transform="translate(-154.33 -515.38)"/><path class="cls-1" d="M1051.56,671.64l29.85,30.78c-.08.2-.09.36-.18.45-4.32,4.57-8.51,9.26-13,13.66a96,96,0,0,1-34.52,21.54,119.94,119.94,0,0,1-27.75,6.69,137.14,137.14,0,0,1-26.72.48c-24.7-2-47-10.28-66-26.21-20.17-16.85-33-38.25-38.14-64.09A125.72,125.72,0,0,1,873,622.31c1-15.83,4.62-31,12-45.09q21.09-40.12,64-55.13a120.46,120.46,0,0,1,26.19-5.85,127.86,127.86,0,0,1,24.43-.49c17.31,1.34,33.83,5.56,49.1,14.06a93.55,93.55,0,0,1,23,18c2.84,3,5.7,6.08,8.56,9.13.36.38.71.77,1.18,1.29l-30,30.93-4.2-4.11c-2.39-2.35-4.78-4.71-7.18-7a62.72,62.72,0,0,0-35.06-17.51c-12.84-2-25.54-1.51-38,2.4-14.11,4.43-26,12.21-34.94,24.1a66.89,66.89,0,0,0-13,29.14A84,84,0,0,0,918,634.61a69.66,69.66,0,0,0,3.28,19.07c5.63,16.71,15.84,29.7,31.38,38.36A73.25,73.25,0,0,0,977,700.62a92.37,92.37,0,0,0,20.95.77,71,71,0,0,0,19.23-3.95A64.88,64.88,0,0,0,1041,682q4.6-4.56,9.23-9.08C1050.61,672.5,1051,672.12,1051.56,671.64Z" transform="translate(-154.33 -515.38)"/><path class="cls-1" d="M483.76,585.37c-.34.66-.59,1.1-.8,1.57L443.1,674.78l-30.82,68a7.75,7.75,0,0,0-.35.78,1.07,1.07,0,0,1-1.23.76c-.28,0-.57,0-.86,0H362.13q52.42-113.92,104.65-227.36H501L605.58,744.18c-.69,0-1.19.08-1.69.08q-23.11,0-46.21,0a2,2,0,0,1-2.14-1.38q-26.38-58-52.82-116.06-9.08-20-18.17-39.91C484.34,586.48,484.1,586,483.76,585.37Z" transform="translate(-154.33 -515.38)"/><path class="cls-1" d="M694.44,744.18h-45l-.11-.12a.87.87,0,0,1-.09-.11.58.58,0,0,1,0-.14l0-.14v-.15a.61.61,0,0,1,0-.14V561.7s0-.09,0-.14v-.29a.66.66,0,0,0,0-.14.59.59,0,0,0,0-.14.58.58,0,0,0,0-.14,3,3,0,0,0-.21-.27H578.65c-.31-1.21-.43-41-.16-43.52,1-.29,185.12-.34,186.65,0v43.49h-70.7Z" transform="translate(-154.33 -515.38)"/><path class="cls-1" d="M789.29,516.91h45V744c-1.15.31-43.42.36-45,.05Z" transform="translate(-154.33 -515.38)"/></svg>